<svg width="25" height="25" viewBox="0 0 25 25" fill="none" xmlns="http://www.w3.org/2000/svg">
<path d="M12.6283 7.76373C8.58287 2.80006 4.31157 6.32696 4.25537 10.1289C4.25537 15.7889 11.0275 20.4346 12.6283 20.4346C14.2291 20.4346 21.0012 15.7889 21.0012 10.1289C20.945 6.32696 16.6737 2.80006 12.6283 7.76373Z" fill="white" fill-opacity="0.7"/>
<path d="M4.43066 8.85755C5.27744 5.63575 9.04166 3.36246 12.6283 7.76324C16.6737 2.79957 20.9451 6.32647 21.0013 10.1284C21.0013 15.7884 14.2291 20.4341 12.6283 20.4341C11.6709 20.4341 8.86378 18.7724 6.76192 16.2257" stroke="#B34B23" stroke-width="2.01064" stroke-linecap="round" stroke-linejoin="round"/>
<path d="M15.9775 12.2068H13.968L11.9585 14.8861L9.27913 10.1973L7.26963 12.8766H4.25537" stroke="#B34B23" stroke-width="2.01064" stroke-linecap="round" stroke-linejoin="round"/>
</svg>
