<?xml version="1.0" encoding="utf-8"?>
<!-- Generator: Adobe Illustrator 23.0.3, SVG Export Plug-In . SVG Version: 6.00 Build 0)  -->
<svg version="1.1" id="Layer_1" xmlns="http://www.w3.org/2000/svg" xmlns:xlink="http://www.w3.org/1999/xlink" x="0px" y="0px"
	 viewBox="0 0 503.58 114.38" style="enable-background:new 0 0 503.58 114.38;" xml:space="preserve">
<style type="text/css">
	.st0{fill:#838C68;}
	.st1{fill:#B34B23;}
	.st2{fill:#365D4A;}
	.st3{fill:#F0E6DC;}
</style>
<g>
	<g>
		<path class="st0" d="M55.39,37.6c4.28,1.84,7.79,4.87,10.51,9.08c2.72,4.21,4.09,9.65,4.09,16.3c0,6.58-1.36,11.98-4.09,16.2
			c-2.73,4.21-6.14,7.24-10.25,9.08c-4.11,1.84-8.28,2.76-12.53,2.76c-4.82,0-9.08-0.9-12.8-2.71s-7.1-4.48-10.14-8.02v11.15
			c0,4.81,0.07,8.71,0.21,11.68c0.14,2.97,0.49,6.73,1.06,11.26H0c0.57-4.53,0.92-8.28,1.06-11.26c0.14-2.97,0.21-6.87,0.21-11.68
			V59.9c0-4.74-0.07-8.6-0.21-11.58C0.92,45.35,0.57,41.56,0,36.96h21.13c-0.42,2.9-0.71,6.83-0.85,11.79
			c1.56-4.32,4.11-7.72,7.65-10.2c3.54-2.48,8.18-3.72,13.91-3.72C46.59,34.83,51.1,35.75,55.39,37.6z M45.99,81.03
			c2.26-3.89,3.4-9.91,3.4-18.05c0-6.94-1.17-12.55-3.5-16.83c-2.34-4.28-5.95-6.43-10.83-6.43c-4.32,0-7.88,1.79-10.67,5.36
			c-2.8,3.58-4.19,8.8-4.19,15.67v15.82c2.34,3.12,4.94,5.61,7.81,7.49c2.87,1.88,5.79,2.81,8.76,2.81
			C40.64,86.87,43.72,84.93,45.99,81.03z"/>
		<path class="st0" d="M99.41,15.45c-0.14,3.15-0.21,7.21-0.21,12.16v37.6c0,4.96,0.07,9.01,0.21,12.16
			c0.14,3.15,0.49,6.99,1.06,11.52H79.02c0.57-4.53,0.92-8.37,1.06-11.52c0.14-3.15,0.21-7.2,0.21-12.16v-37.6
			c0-4.95-0.07-9.01-0.21-12.16c-0.14-3.15-0.5-6.99-1.06-11.52h21.45C99.9,8.46,99.55,12.3,99.41,15.45z"/>
		<path class="st0" d="M150.7,88.89c-0.71-3.47-1.1-6.83-1.17-10.09c-1.56,3.82-4.09,6.82-7.59,8.97c-3.5,2.16-8.05,3.24-13.65,3.24
			c-5.17,0-9.65-1.15-13.43-3.45c-3.79-2.3-5.68-5.96-5.68-10.99c0-4.25,1.43-7.66,4.3-10.25c2.87-2.58,6.12-4.44,9.77-5.58
			c3.65-1.13,7.91-2.16,12.8-3.08c4.89-0.85,8.34-2.07,10.35-3.66c2.02-1.59,3.03-4.05,3.03-7.38c0-6.09-2.66-9.13-7.97-9.13
			c-3.19,0-5.63,0.69-7.33,2.07c-1.7,1.38-3.4,3.42-5.1,6.11l-1.59,2.44c-0.99,1.35-2.14,2.35-3.45,3.03
			c-1.31,0.67-2.67,1.01-4.09,1.01c-1.98,0-3.79-0.69-5.42-2.07c-1.63-1.38-2.66-3.31-3.08-5.79c4.11-2.69,9.03-4.94,14.76-6.74
			c5.73-1.81,11.72-2.71,17.95-2.71c7.58,0,13.49,1.33,17.74,3.98c4.25,2.66,6.41,7.1,6.48,13.33v13.81c0,4.96,0.09,8.9,0.27,11.84
			c0.18,2.94,0.62,6.64,1.33,11.1H150.7z M146.24,80.13c2.12-3.01,3.19-6.78,3.19-11.31V54.69c-0.71,0.92-1.65,1.66-2.81,2.23
			c-1.17,0.57-2.43,1.1-3.77,1.59c-1.35,0.5-2.27,0.81-2.76,0.96c-3.47,1.27-6.05,3.05-7.75,5.31c-1.7,2.27-2.55,5.13-2.55,8.6
			c0,3.82,0.71,6.66,2.12,8.5c1.42,1.84,3.36,2.76,5.84,2.76C141.29,84.64,144.12,83.14,146.24,80.13z"/>
		<path class="st0" d="M221.12,77.32c0.14-2.9,0.21-6.69,0.21-11.36V49.6c0-6.58-2.2-9.88-6.58-9.88c-5.52,0-10.48,4.32-14.87,12.96
			v6.9v6.69c0,4.82,0.07,8.67,0.21,11.58c0.14,2.9,0.49,6.58,1.06,11.05H179.7c0.57-4.46,0.92-8.14,1.06-11.05
			c0.14-2.9,0.21-6.76,0.21-11.58v-6.69c0-4.74-0.07-8.58-0.21-11.52c-0.14-2.94-0.5-6.64-1.06-11.1h21.45
			c-0.64,4.32-0.99,8.11-1.06,11.36c2.48-4.18,5.49-7.47,9.03-9.88c3.54-2.41,7.93-3.61,13.17-3.61c5.8,0,10.27,1.7,13.38,5.1
			c3.11,3.4,4.67,8.92,4.67,16.57v9.45c0,4.67,0.07,8.46,0.21,11.36c0.14,2.9,0.49,6.76,1.06,11.58h-21.56
			C220.62,84.08,220.97,80.22,221.12,77.32z"/>
		<path class="st0" d="M292.38,67.23c-0.85,6.23-2.11,11.12-3.77,14.66c-1.66,3.54-3.75,6.04-6.27,7.49
			c-2.51,1.45-5.61,2.18-9.29,2.18c-6.16,0-10.53-1.59-13.12-4.78c-2.59-3.19-3.88-8-3.88-14.44V39.61h-11.47v-2.66h1.81
			c4.74,0,8.18-0.97,10.3-2.92c2.12-1.95,3.4-4.39,3.82-7.33c0.42-2.94,0.64-7.17,0.64-12.69h15.93c0,11.61-4.67,19.26-14.02,22.94
			h27.4v2.66h-15.51V75.3c0,4.18,0.39,7.12,1.17,8.81c0.78,1.7,2.16,2.55,4.14,2.55c4.67,0,7.97-6.48,9.88-19.44H292.38z"/>
		<path class="st0" d="M363.11,68.61c-4.67,14.94-14.83,22.41-30.48,22.41c-6.16,0-11.83-1.08-16.99-3.24
			c-5.17-2.16-9.29-5.35-12.37-9.56c-3.08-4.21-4.62-9.29-4.62-15.24c0-5.88,1.56-10.94,4.67-15.19c3.11-4.25,7.19-7.47,12.21-9.66
			c5.03-2.19,10.41-3.29,16.14-3.29c5.88,0,11.01,1.03,15.4,3.08c4.39,2.05,7.75,4.85,10.09,8.39c2.34,3.54,3.54,7.43,3.61,11.68
			h-41.42c-0.07,0.71-0.11,1.84-0.11,3.4c0,7.22,1.72,13.15,5.15,17.79c3.43,4.64,8.3,6.96,14.6,6.96c4.74,0,9.06-1.42,12.96-4.25
			c3.89-2.83,6.9-7.26,9.03-13.28H363.11z M323.28,41.9c-2.05,2.94-3.33,7.42-3.82,13.43h21.45c0-5.8-0.76-10.23-2.28-13.28
			c-1.52-3.04-3.95-4.57-7.27-4.57C328.03,37.49,325.34,38.96,323.28,41.9z"/>
		<path class="st0" d="M484.36,88.89c-0.71-3.47-1.1-6.83-1.17-10.09c-1.56,3.82-4.09,6.82-7.59,8.97
			c-3.5,2.16-8.06,3.24-13.65,3.24c-5.17,0-9.65-1.15-13.43-3.45c-3.79-2.3-5.68-5.96-5.68-10.99c0-4.25,1.43-7.66,4.3-10.25
			c2.87-2.58,6.12-4.44,9.77-5.58c3.65-1.13,7.91-2.16,12.8-3.08c4.89-0.85,8.34-2.07,10.36-3.66c2.02-1.59,3.03-4.05,3.03-7.38
			c0-6.09-2.66-9.13-7.97-9.13c-3.19,0-5.63,0.69-7.33,2.07c-1.7,1.38-3.4,3.42-5.1,6.11l-1.59,2.44c-0.99,1.35-2.14,2.35-3.45,3.03
			c-1.31,0.67-2.67,1.01-4.09,1.01c-1.98,0-3.79-0.69-5.42-2.07c-1.63-1.38-2.66-3.31-3.08-5.79c4.11-2.69,9.03-4.94,14.76-6.74
			c5.74-1.81,11.72-2.71,17.95-2.71c7.57,0,13.49,1.33,17.74,3.98c4.25,2.66,6.41,7.1,6.48,13.33v13.81c0,4.96,0.09,8.9,0.27,11.84
			c0.18,2.94,0.62,6.64,1.33,11.1H484.36z M479.9,80.13c2.12-3.01,3.19-6.78,3.19-11.31V54.69c-0.71,0.92-1.65,1.66-2.81,2.23
			c-1.17,0.57-2.43,1.1-3.77,1.59c-1.35,0.5-2.27,0.81-2.76,0.96c-3.47,1.27-6.05,3.05-7.75,5.31c-1.7,2.27-2.55,5.13-2.55,8.6
			c0,3.82,0.71,6.66,2.12,8.5c1.42,1.84,3.36,2.76,5.84,2.76C474.94,84.64,477.78,83.14,479.9,80.13z"/>
		<path class="st0" d="M437.24,83.85c-1.49-1.88-3.12-4.05-4.89-6.53c-1.98-2.9-4.18-5.24-6.58-7.01c-2.41-1.77-5.47-3.22-9.19-4.35
			c-3.72-1.13-8.48-1.98-14.28-2.55c15.66-0.85,23.36-3.05,27.02-9.02c1.75-2.86,2.87-8.14,2.79-11.61c-0.07-3.29,0.6-5.79,0.6-5.79
			s-17.47,0-20.77,0c5.98,16-3.15,20.75-4.22,21.39c-4.11,2.44-9.86,3.66-17.08,3.66l-0.13-34.41c0-4.95,0.07-9.01,0.21-12.16
			c0.14-3.15,0.49-6.99,1.06-11.52h-21.45c0.57,4.53,0.92,8.37,1.06,11.52c0.14,3.15,0.21,7.21,0.21,12.16v37.6
			c0,4.96-0.07,9.01-0.21,12.16c-0.14,3.15-0.5,6.99-1.06,11.52h21.45c-0.57-4.11-0.92-7.72-1.06-10.83
			c-0.14-3.11-0.21-6.69-0.21-10.73c0-1.56,0.04-2.73,0.11-3.5c4.89,0.5,8.96,1.79,12.21,3.88c3.26,2.09,6.34,5.29,9.24,9.61
			c1.84,2.62,3.19,4.69,4.04,6.21c0.85,1.52,1.66,3.31,2.44,5.36h23.05C440.18,87.4,438.73,85.72,437.24,83.85z"/>
	</g>
	<path class="st1" d="M308.6,0.58c-0.43-1.33-1.13,0-2.98,0.3c-9.69,1.56-13.94,0.92-19.82,7.11c-4.92,5.18-6.56,13.27-4.76,20.05
		c0.05,0.2,0.27,0.49,0.82,0.12c11.76-7.96,22.77-22.46,23.07-22.26c0.97,0.64-10.97,16.51-21.44,24.54
		c-0.33,0.25-0.3,0.83,0.39,0.89c8.89,0.82,16.61-1.46,21.78-7.24C310.96,18.16,311.92,7.66,308.6,0.58z"/>
</g>
</svg>
