<svg width="60" height="60" viewBox="0 0 60 60" fill="none" xmlns="http://www.w3.org/2000/svg">
<path d="M5.01167 52.1782C5.16098 53.6194 6.30321 54.7607 7.74417 54.9119C14.8418 55.6565 22.3025 56.7858 30.0001 56.7858C37.6976 56.7858 45.1584 55.6565 52.256 54.9119C53.6969 54.7607 54.8392 53.6194 54.9885 52.1783C55.7212 45.1053 56.7858 37.6706 56.7858 30.0001C56.7858 22.3295 55.7212 14.8949 54.9885 7.82189C54.8392 6.38073 53.6969 5.23945 52.256 5.08827C45.1584 4.34363 37.6976 3.21436 30.0001 3.21436C22.3025 3.21436 14.8418 4.34363 7.74417 5.08827C6.30321 5.23945 5.16097 6.38073 5.01167 7.82189C4.27891 14.8949 3.21436 22.3295 3.21436 30.0001C3.21436 37.6706 4.27891 45.1053 5.01167 52.1782Z" fill="#F0E6DC" stroke="#365D4A" stroke-width="1.5"/>
<path d="M30 38.5715L30 56.7858" stroke="#365D4A" stroke-width="1.5" stroke-linecap="round" stroke-linejoin="round"/>
<path d="M17.1428 25.7143C17.1428 36 25.7143 38.5714 30 38.5714C34.2857 38.5714 42.8571 36 42.8571 25.7143V17.1428C40.7143 17.1429 35.1428 18.0001 30 21.4286C24.8571 18.0001 19.2857 17.1429 17.1428 17.1428V25.7143Z" fill="white" stroke="#365D4A" stroke-width="1.5" stroke-linecap="round" stroke-linejoin="round"/>
<path d="M19.2856 47.1428C21.4285 47.8571 26.5714 50.5714 29.9999 55.7143" stroke="#365D4A" stroke-width="1.5" stroke-linecap="round" stroke-linejoin="round"/>
<path d="M40.7144 47.1428C38.5715 47.8571 33.4286 50.5714 30.0001 55.7143" stroke="#365D4A" stroke-width="1.5" stroke-linecap="round" stroke-linejoin="round"/>
</svg>
