<svg width="60" height="60" viewBox="0 0 60 60" fill="none" xmlns="http://www.w3.org/2000/svg">
<path d="M40.2728 30.0371C45.9508 30.0371 50.5537 25.4342 50.5537 19.7562C50.5537 14.0783 45.9508 9.47534 40.2728 9.47534C34.5949 9.47534 29.9919 14.0783 29.9919 19.7562C29.9919 25.4342 34.5949 30.0371 40.2728 30.0371Z" fill="#F0E6DC"/>
<path d="M40.2729 30.0375C45.9509 30.0375 50.5538 25.4346 50.5538 19.7566C50.5538 15.3644 47.7995 11.6154 43.9238 10.1428" stroke="#365D4A" stroke-width="1.5" stroke-linecap="round" stroke-linejoin="round"/>
<path d="M54.3155 44.4796C59.3444 47.829 55.9486 54.289 49.9064 54.289H27.2162C21.174 54.289 17.7782 47.829 22.8071 44.4796C27.3179 41.4753 32.7351 39.7244 38.5613 39.7244C44.3875 39.7244 49.8047 41.4753 54.3155 44.4796Z" fill="#F0E6DC"/>
<path d="M22.9735 27.9995C29.1284 27.9995 34.1179 23.0099 34.1179 16.8551C34.1179 10.7002 29.1284 5.71069 22.9735 5.71069C16.8186 5.71069 11.8291 10.7002 11.8291 16.8551C11.8291 23.0099 16.8186 27.9995 22.9735 27.9995Z" fill="#F0E6DC" stroke="#365D4A" stroke-width="1.5" stroke-linecap="round" stroke-linejoin="round"/>
<path d="M40.0436 43.6568C45.4949 47.2875 41.8139 54.2901 35.2642 54.2901H10.6682C4.11851 54.2901 0.437537 47.2875 5.88882 43.6568C10.7785 40.4002 16.6507 38.5022 22.9662 38.5022C29.2817 38.5022 35.154 40.4002 40.0436 43.6568Z" fill="#F0E6DC" stroke="#365D4A" stroke-width="1.5"/>
<path d="M34.3169 54.2895H49.9064C55.9486 54.2895 59.3444 47.8295 54.3155 44.4801C52.9269 43.5553 51.4523 42.7492 49.9064 42.0764" stroke="#365D4A" stroke-width="1.5" stroke-linecap="round"/>
</svg>
