<svg width="36" height="33" viewBox="0 0 36 33" fill="none" xmlns="http://www.w3.org/2000/svg">
<path d="M17.7514 6.21583C9.82236 -3.51295 1.45061 3.39977 1.34045 10.8515C1.34045 21.9451 14.6138 31.0507 17.7514 31.0507C20.8889 31.0507 34.1623 21.9451 34.1623 10.8515C34.0522 3.39977 25.6804 -3.51295 17.7514 6.21583Z" fill="white" fill-opacity="0.7"/>
<path d="M1.6839 8.3602C3.34358 2.04547 10.7215 -2.41019 17.7513 6.21535C25.6803 -3.51344 34.0521 3.39928 34.1623 10.851C34.1623 21.9446 20.8889 31.0502 17.7513 31.0502C15.8748 31.0502 10.3728 27.7932 6.25315 22.8018" stroke="#B34B23" stroke-width="2.01064" stroke-linecap="round" stroke-linejoin="round"/>
<path d="M24.3156 14.925H20.377L16.4383 20.1765L11.1868 10.9863L7.24821 16.2378H1.34027" stroke="#B34B23" stroke-width="2.01064" stroke-linecap="round" stroke-linejoin="round"/>
</svg>
