<svg width="60" height="60" viewBox="0 0 60 60" fill="none" xmlns="http://www.w3.org/2000/svg">
<path d="M30.0001 56.7858C44.7934 56.7858 56.7858 44.7934 56.7858 30.0001C56.7858 15.2067 44.7934 3.21436 30.0001 3.21436C15.2067 3.21436 3.21436 15.2067 3.21436 30.0001C3.21436 44.7934 15.2067 56.7858 30.0001 56.7858Z" fill="#F0E6DC" stroke="#365D4A" stroke-width="1.5" stroke-linecap="round" stroke-linejoin="round"/>
<path d="M16.4011 34.1204C18.4616 41.5379 26.7033 46.0709 34.1209 44.0105C38.6539 42.3621 42.3627 38.6533 43.5989 34.1204" stroke="#365D4A" stroke-width="1.5" stroke-linecap="round" stroke-linejoin="round"/>
<path d="M40.9206 23.8187C40.3516 23.8187 39.8904 23.3575 39.8904 22.7885C39.8904 22.2195 40.3516 21.7583 40.9206 21.7583" stroke="#365D4A" stroke-width="1.5" stroke-linecap="round" stroke-linejoin="round"/>
<path d="M40.9205 23.8187C41.4894 23.8187 41.9507 23.3575 41.9507 22.7885C41.9507 22.2195 41.4894 21.7583 40.9205 21.7583" stroke="#365D4A" stroke-width="1.5" stroke-linecap="round" stroke-linejoin="round"/>
<path d="M19.0798 23.8187C18.5108 23.8187 18.0496 23.3575 18.0496 22.7885C18.0496 22.2195 18.5108 21.7583 19.0798 21.7583" stroke="#365D4A" stroke-width="1.5" stroke-linecap="round" stroke-linejoin="round"/>
<path d="M19.0799 23.8187C19.6489 23.8187 20.1101 23.3575 20.1101 22.7885C20.1101 22.2195 19.6489 21.7583 19.0799 21.7583" stroke="#365D4A" stroke-width="1.5" stroke-linecap="round" stroke-linejoin="round"/>
</svg>
